<svg id="visual" viewBox="0 0 960 300" width="960" height="300" xmlns="http://www.w3.org/2000/svg" xmlns:xlink="http://www.w3.org/1999/xlink" version="1.1"><rect x="0" y="0" width="960" height="300" fill="#C0BCB5"></rect><path d="M0 193L20 194.2C40 195.3 80 197.7 120 202.2C160 206.7 200 213.3 240 210.5C280 207.7 320 195.3 360 187.3C400 179.3 440 175.7 480 177.5C520 179.3 560 186.7 600 189.8C640 193 680 192 720 187.8C760 183.7 800 176.3 840 178.3C880 180.3 920 191.7 940 197.3L960 203L960 301L940 301C920 301 880 301 840 301C800 301 760 301 720 301C680 301 640 301 600 301C560 301 520 301 480 301C440 301 400 301 360 301C320 301 280 301 240 301C200 301 160 301 120 301C80 301 40 301 20 301L0 301Z" fill="#846075"></path><path d="M0 230L20 228.5C40 227 80 224 120 218.3C160 212.7 200 204.3 240 207.7C280 211 320 226 360 229.7C400 233.3 440 225.7 480 217.5C520 209.3 560 200.7 600 198.3C640 196 680 200 720 201.2C760 202.3 800 200.7 840 206.3C880 212 920 225 940 231.5L960 238L960 301L940 301C920 301 880 301 840 301C800 301 760 301 720 301C680 301 640 301 600 301C560 301 520 301 480 301C440 301 400 301 360 301C320 301 280 301 240 301C200 301 160 301 120 301C80 301 40 301 20 301L0 301Z" fill="#905f74"></path><path d="M0 236L20 237.3C40 238.7 80 241.3 120 243C160 244.7 200 245.3 240 243.2C280 241 320 236 360 236.3C400 236.7 440 242.3 480 241.7C520 241 560 234 600 231.8C640 229.7 680 232.3 720 233.7C760 235 800 235 840 237.8C880 240.7 920 246.3 940 249.2L960 252L960 301L940 301C920 301 880 301 840 301C800 301 760 301 720 301C680 301 640 301 600 301C560 301 520 301 480 301C440 301 400 301 360 301C320 301 280 301 240 301C200 301 160 301 120 301C80 301 40 301 20 301L0 301Z" fill="#9b5e70"></path><path d="M0 261L20 260C40 259 80 257 120 255.2C160 253.3 200 251.7 240 253.3C280 255 320 260 360 262.5C400 265 440 265 480 261.2C520 257.3 560 249.7 600 249C640 248.3 680 254.7 720 258.7C760 262.7 800 264.3 840 265.3C880 266.3 920 266.7 940 266.8L960 267L960 301L940 301C920 301 880 301 840 301C800 301 760 301 720 301C680 301 640 301 600 301C560 301 520 301 480 301C440 301 400 301 360 301C320 301 280 301 240 301C200 301 160 301 120 301C80 301 40 301 20 301L0 301Z" fill="#a65d6b"></path><path d="M0 275L20 272.7C40 270.3 80 265.7 120 263.2C160 260.7 200 260.3 240 262.7C280 265 320 270 360 270.3C400 270.7 440 266.3 480 265.5C520 264.7 560 267.3 600 267.2C640 267 680 264 720 264.7C760 265.3 800 269.7 840 271C880 272.3 920 270.7 940 269.8L960 269L960 301L940 301C920 301 880 301 840 301C800 301 760 301 720 301C680 301 640 301 600 301C560 301 520 301 480 301C440 301 400 301 360 301C320 301 280 301 240 301C200 301 160 301 120 301C80 301 40 301 20 301L0 301Z" fill="#af5d63"></path></svg>