<svg id="visual" viewBox="0 0 600 1600" width="600" height="1600" xmlns="http://www.w3.org/2000/svg" xmlns:xlink="http://www.w3.org/1999/xlink" version="1.1"><rect x="0" y="0" width="600" height="1600" fill="#C0BCB5"></rect><path d="M0 1036L12.5 1041.5C25 1047 50 1058 75 1081.5C100 1105 125 1141 150 1126.2C175 1111.3 200 1045.7 225 1003.5C250 961.3 275 942.7 300 952.5C325 962.3 350 1000.7 375 1017C400 1033.3 425 1027.7 450 1005.5C475 983.3 500 944.7 525 955C550 965.3 575 1024.7 587.5 1054.3L600 1084L600 1601L587.5 1601C575 1601 550 1601 525 1601C500 1601 475 1601 450 1601C425 1601 400 1601 375 1601C350 1601 325 1601 300 1601C275 1601 250 1601 225 1601C200 1601 175 1601 150 1601C125 1601 100 1601 75 1601C50 1601 25 1601 12.5 1601L0 1601Z" fill="#846075"></path><path d="M0 1231L12.5 1223.2C25 1215.3 50 1199.7 75 1169.8C100 1140 125 1096 150 1113.2C175 1130.3 200 1208.7 225 1227.8C250 1247 275 1207 300 1164.2C325 1121.3 350 1075.7 375 1063.2C400 1050.7 425 1071.3 450 1077C475 1082.7 500 1073.3 525 1104C550 1134.7 575 1205.3 587.5 1240.7L600 1276L600 1601L587.5 1601C575 1601 550 1601 525 1601C500 1601 475 1601 450 1601C425 1601 400 1601 375 1601C350 1601 325 1601 300 1601C275 1601 250 1601 225 1601C200 1601 175 1601 150 1601C125 1601 100 1601 75 1601C50 1601 25 1601 12.5 1601L0 1601Z" fill="#905f74"></path><path d="M0 1262L12.5 1269.3C25 1276.7 50 1291.3 75 1300.2C100 1309 125 1312 150 1300.8C175 1289.7 200 1264.3 225 1266.7C250 1269 275 1299 300 1295C325 1291 350 1253 375 1241C400 1229 425 1243 450 1249.8C475 1256.7 500 1256.3 525 1271.5C550 1286.7 575 1317.3 587.5 1332.7L600 1348L600 1601L587.5 1601C575 1601 550 1601 525 1601C500 1601 475 1601 450 1601C425 1601 400 1601 375 1601C350 1601 325 1601 300 1601C275 1601 250 1601 225 1601C200 1601 175 1601 150 1601C125 1601 100 1601 75 1601C50 1601 25 1601 12.5 1601L0 1601Z" fill="#9b5e70"></path><path d="M0 1397L12.5 1391.2C25 1385.3 50 1373.7 75 1364.2C100 1354.7 125 1347.3 150 1356.3C175 1365.3 200 1390.7 225 1404C250 1417.3 275 1418.7 300 1398.5C325 1378.3 350 1336.7 375 1332.3C400 1328 425 1361 450 1382.7C475 1404.3 500 1414.7 525 1420.5C550 1426.3 575 1427.7 587.5 1428.3L600 1429L600 1601L587.5 1601C575 1601 550 1601 525 1601C500 1601 475 1601 450 1601C425 1601 400 1601 375 1601C350 1601 325 1601 300 1601C275 1601 250 1601 225 1601C200 1601 175 1601 150 1601C125 1601 100 1601 75 1601C50 1601 25 1601 12.5 1601L0 1601Z" fill="#a65d6b"></path><path d="M0 1470L12.5 1457.3C25 1444.7 50 1419.3 75 1406.5C100 1393.7 125 1393.3 150 1406.2C175 1419 200 1445 225 1446C250 1447 275 1423 300 1418.3C325 1413.7 350 1428.3 375 1427.5C400 1426.7 425 1410.3 450 1413.8C475 1417.3 500 1440.7 525 1447.8C550 1455 575 1446 587.5 1441.5L600 1437L600 1601L587.5 1601C575 1601 550 1601 525 1601C500 1601 475 1601 450 1601C425 1601 400 1601 375 1601C350 1601 325 1601 300 1601C275 1601 250 1601 225 1601C200 1601 175 1601 150 1601C125 1601 100 1601 75 1601C50 1601 25 1601 12.5 1601L0 1601Z" fill="#af5d63"></path></svg>