<svg id="visual" viewBox="0 0 540 960" width="540" height="960" xmlns="http://www.w3.org/2000/svg" xmlns:xlink="http://www.w3.org/1999/xlink" version="1.1"><rect x="0" y="0" width="540" height="960" fill="#C0BCB5"></rect><path d="M0 621L11.3 624.3C22.7 627.7 45.3 634.3 67.8 648.5C90.3 662.7 112.7 684.3 135.2 675.5C157.7 666.7 180.3 627.3 202.8 602C225.3 576.7 247.7 565.3 270.2 571.2C292.7 577 315.3 600 337.8 609.8C360.3 619.7 382.7 616.3 405.2 603C427.7 589.7 450.3 566.3 472.8 572.5C495.3 578.7 517.7 614.3 528.8 632.2L540 650L540 961L528.8 961C517.7 961 495.3 961 472.8 961C450.3 961 427.7 961 405.2 961C382.7 961 360.3 961 337.8 961C315.3 961 292.7 961 270.2 961C247.7 961 225.3 961 202.8 961C180.3 961 157.7 961 135.2 961C112.7 961 90.3 961 67.8 961C45.3 961 22.7 961 11.3 961L0 961Z" fill="#846075"></path><path d="M0 738L11.3 733.3C22.7 728.7 45.3 719.3 67.8 701.5C90.3 683.7 112.7 657.3 135.2 667.7C157.7 678 180.3 725 202.8 736.5C225.3 748 247.7 724 270.2 698.2C292.7 672.3 315.3 644.7 337.8 637.2C360.3 629.7 382.7 642.3 405.2 645.8C427.7 649.3 450.3 643.7 472.8 662C495.3 680.3 517.7 722.7 528.8 743.8L540 765L540 961L528.8 961C517.7 961 495.3 961 472.8 961C450.3 961 427.7 961 405.2 961C382.7 961 360.3 961 337.8 961C315.3 961 292.7 961 270.2 961C247.7 961 225.3 961 202.8 961C180.3 961 157.7 961 135.2 961C112.7 961 90.3 961 67.8 961C45.3 961 22.7 961 11.3 961L0 961Z" fill="#905f74"></path><path d="M0 757L11.3 761.3C22.7 765.7 45.3 774.3 67.8 779.7C90.3 785 112.7 787 135.2 780.3C157.7 773.7 180.3 758.3 202.8 759.7C225.3 761 247.7 779 270.2 776.5C292.7 774 315.3 751 337.8 743.8C360.3 736.7 382.7 745.3 405.2 749.5C427.7 753.7 450.3 753.3 472.8 762.3C495.3 771.3 517.7 789.7 528.8 798.8L540 808L540 961L528.8 961C517.7 961 495.3 961 472.8 961C450.3 961 427.7 961 405.2 961C382.7 961 360.3 961 337.8 961C315.3 961 292.7 961 270.2 961C247.7 961 225.3 961 202.8 961C180.3 961 157.7 961 135.2 961C112.7 961 90.3 961 67.8 961C45.3 961 22.7 961 11.3 961L0 961Z" fill="#9b5e70"></path><path d="M0 838L11.3 834.5C22.7 831 45.3 824 67.8 818.3C90.3 812.7 112.7 808.3 135.2 813.7C157.7 819 180.3 834 202.8 841.8C225.3 849.7 247.7 850.3 270.2 838.3C292.7 826.3 315.3 801.7 337.8 799.2C360.3 796.7 382.7 816.3 405.2 829.2C427.7 842 450.3 848 472.8 851.5C495.3 855 517.7 856 528.8 856.5L540 857L540 961L528.8 961C517.7 961 495.3 961 472.8 961C450.3 961 427.7 961 405.2 961C382.7 961 360.3 961 337.8 961C315.3 961 292.7 961 270.2 961C247.7 961 225.3 961 202.8 961C180.3 961 157.7 961 135.2 961C112.7 961 90.3 961 67.8 961C45.3 961 22.7 961 11.3 961L0 961Z" fill="#a65d6b"></path><path d="M0 881L11.3 873.5C22.7 866 45.3 851 67.8 843.5C90.3 836 112.7 836 135.2 843.7C157.7 851.3 180.3 866.7 202.8 867.2C225.3 867.7 247.7 853.3 270.2 850.5C292.7 847.7 315.3 856.3 337.8 855.8C360.3 855.3 382.7 845.7 405.2 847.8C427.7 850 450.3 864 472.8 868.3C495.3 872.7 517.7 867.3 528.8 864.7L540 862L540 961L528.8 961C517.7 961 495.3 961 472.8 961C450.3 961 427.7 961 405.2 961C382.7 961 360.3 961 337.8 961C315.3 961 292.7 961 270.2 961C247.7 961 225.3 961 202.8 961C180.3 961 157.7 961 135.2 961C112.7 961 90.3 961 67.8 961C45.3 961 22.7 961 11.3 961L0 961Z" fill="#af5d63"></path></svg>